<?xml version="1.0" encoding="UTF-8"?>
<!DOCTYPE svg PUBLIC "-//W3C//DTD SVG 1.1//EN" "http://www.w3.org/Graphics/SVG/1.1/DTD/svg11.dtd">
<svg xmlns="http://www.w3.org/2000/svg" version="1.1" width="500px" height="130px" style="shape-rendering:geometricPrecision; text-rendering:geometricPrecision; image-rendering:optimizeQuality; fill-rule:evenodd; clip-rule:evenodd" xmlns:xlink="http://www.w3.org/1999/xlink">
<g><path style="opacity:0.004" fill="#fefffe" d="M 454.5,-0.5 C 454.833,-0.5 455.167,-0.5 455.5,-0.5C 455.315,0.170143 454.981,0.170143 454.5,-0.5 Z"/></g>
<g><path style="opacity:0.004" fill="#fefffe" d="M 196.5,3.5 C 197.833,4.16667 197.833,4.16667 196.5,3.5 Z"/></g>
<g><path style="opacity:0.004" fill="#fefffe" d="M 310.5,3.5 C 311.833,4.16667 311.833,4.16667 310.5,3.5 Z"/></g>
<g><path style="opacity:0.004" fill="#fefffe" d="M 92.5,6.5 C 91.8333,5.16667 91.8333,5.16667 92.5,6.5 Z"/></g>
<g><path style="opacity:0.973" fill="#bb9beb" d="M 137.5,51.5 C 138.587,38.8593 138.754,26.1927 138,13.5C 136.98,12.1095 136.147,10.6095 135.5,9C 134.376,8.75083 133.376,8.25083 132.5,7.5C 119.846,6.33402 107.18,6.16736 94.5,7C 92.9625,8.70733 91.2959,10.2073 89.5,11.5C 90.075,9.5887 91.075,7.92203 92.5,6.5C 93.766,5.9101 95.0993,5.4101 96.5,5C 102.5,4.83333 108.5,4.66667 114.5,4.5C 121.269,4.37063 127.936,4.87063 134.5,6C 137.106,7.93842 138.939,10.4384 140,13.5C 140.667,24.8333 140.667,36.1667 140,47.5C 139.8,49.3197 138.966,50.653 137.5,51.5 Z"/></g>
<g><path style="opacity:1" fill="#d3578f" d="M 42.5,5.5 C 46.0498,5.13286 49.0498,6.13286 51.5,8.5C 49.0671,10.0538 46.4005,10.7204 43.5,10.5C 35.0764,10.8847 34.7431,9.21807 42.5,5.5 Z"/></g>
<g><path style="opacity:1" fill="#ae5fcb" d="M 71.5,5.5 C 74.1894,6.18936 75.8561,7.85603 76.5,10.5C 72.9965,9.79507 69.8298,8.46174 67,6.5C 65.8333,6.83333 64.6667,7.16667 63.5,7.5C 65.21,8.88724 66.8767,10.2206 68.5,11.5C 67.5,11.5 66.5,11.5 65.5,11.5C 63.0314,10.6829 60.3647,10.1829 57.5,10C 59.8912,9.30863 59.8912,8.30863 57.5,7C 61.9719,5.56341 66.6386,5.06341 71.5,5.5 Z"/></g>
<g><path style="opacity:1" fill="#d287c4" d="M 34.5,5.5 C 46.8333,4.16667 59.1667,4.16667 71.5,5.5C 66.6386,5.06341 61.9719,5.56341 57.5,7C 59.8912,8.30863 59.8912,9.30863 57.5,10C 60.3647,10.1829 63.0314,10.6829 65.5,11.5C 58.1667,11.5 50.8333,11.5 43.5,11.5C 43.5,11.1667 43.5,10.8333 43.5,10.5C 46.4005,10.7204 49.0671,10.0538 51.5,8.5C 49.0498,6.13286 46.0498,5.13286 42.5,5.5C 39.8333,5.5 37.1667,5.5 34.5,5.5 Z"/></g>
<g><path style="opacity:0.004" fill="#fefffe" d="M 384.5,9.5 C 385.833,10.1667 385.833,10.1667 384.5,9.5 Z"/></g>
<g><path style="opacity:0.004" fill="#fefffe" d="M 183.5,11.5 C 184.833,12.1667 184.833,12.1667 183.5,11.5 Z"/></g>
<g><path style="opacity:0.194" fill="#fffefd" d="M 49.5,13.5 C 51.2884,12.3775 53.2884,12.2109 55.5,13C 53.6349,14.7998 51.6349,14.9664 49.5,13.5 Z"/></g>
<g><path style="opacity:1" fill="#8a54f8" d="M 137.5,51.5 C 135.088,52.9787 133.088,52.4787 131.5,50C 132.667,49.5 133.5,48.6667 134,47.5C 134.178,36.2571 134.678,25.0905 135.5,14C 134.09,12.6283 132.423,11.795 130.5,11.5C 130.167,11.5 129.833,11.5 129.5,11.5C 118.341,10.3407 107.008,10.1741 95.5,11C 94.6634,12.0113 94.33,13.1779 94.5,14.5C 93.8339,19.8229 93.5006,25.3229 93.5,31C 93.5048,36.8762 94.1714,42.3762 95.5,47.5C 96.1109,50.6941 98.1109,52.3608 101.5,52.5C 111.175,52.5002 120.842,52.1669 130.5,51.5C 131.386,52.325 131.719,53.325 131.5,54.5C 120.5,54.5 109.5,54.5 98.5,54.5C 95.419,53.4618 92.419,52.1285 89.5,50.5C 89.1667,48.5 88.8333,46.5 88.5,44.5C 88.1721,33.3206 88.5054,22.3206 89.5,11.5C 91.2959,10.2073 92.9625,8.70733 94.5,7C 107.18,6.16736 119.846,6.33402 132.5,7.5C 133.376,8.25083 134.376,8.75083 135.5,9C 136.147,10.6095 136.98,12.1095 138,13.5C 138.754,26.1927 138.587,38.8593 137.5,51.5 Z M 129.5,11.5 C 129.833,11.5 130.167,11.5 130.5,11.5C 131.801,12.8816 132.634,14.5483 133,16.5C 133.95,26.9325 133.617,37.2659 132,47.5C 131.5,48 131,48.5 130.5,49C 119.5,49.6667 108.5,49.6667 97.5,49C 96.9558,48.2828 96.2891,47.7828 95.5,47.5C 94.5931,41.8936 94.2598,36.227 94.5,30.5C 95.4959,30.5858 96.3292,30.2524 97,29.5C 97.4992,24.8452 97.6658,20.1785 97.5,15.5C 101.846,15.6657 106.179,15.499 110.5,15C 112.715,14.8295 114.715,14.1628 116.5,13C 109.805,12.3354 103.138,12.502 96.5,13.5C 96.6107,12.8826 96.944,12.3826 97.5,12C 108.161,11.5002 118.828,11.3335 129.5,11.5 Z"/></g>
<g><path style="opacity:0.39" fill="#fefafe" d="M 94.5,30.5 C 94.5,26.5 94.5,22.5 94.5,18.5C 95.8333,17.8333 95.8333,17.1667 94.5,16.5C 94.5,15.8333 94.5,15.1667 94.5,14.5C 94.8333,14.5 95.1667,14.5 95.5,14.5C 96.1667,14.5 96.5,14.1667 96.5,13.5C 103.138,12.502 109.805,12.3354 116.5,13C 114.715,14.1628 112.715,14.8295 110.5,15C 106.179,15.499 101.846,15.6657 97.5,15.5C 97.6658,20.1785 97.4992,24.8452 97,29.5C 96.3292,30.2524 95.4959,30.5858 94.5,30.5 Z"/></g>
<g><path style="opacity:0.81" fill="#a37cf0" d="M 129.5,11.5 C 118.828,11.3335 108.161,11.5002 97.5,12C 96.944,12.3826 96.6107,12.8826 96.5,13.5C 95.8333,13.5 95.5,13.8333 95.5,14.5C 95.1667,14.5 94.8333,14.5 94.5,14.5C 94.33,13.1779 94.6634,12.0113 95.5,11C 107.008,10.1741 118.341,10.3407 129.5,11.5 Z"/></g>
<g><path style="opacity:1" fill="#f05963" d="M 33.5,14.5 C 32.5054,25.3206 32.1721,36.3206 32.5,47.5C 32.5394,48.5832 32.8728,49.5832 33.5,50.5C 32.675,51.3857 31.675,51.719 30.5,51.5C 28.4533,38.6362 27.9533,25.6362 29,12.5C 30.1882,11.4366 30.6882,10.1033 30.5,8.5C 31.9305,8.57918 33.2638,8.24585 34.5,7.5C 34.8333,8 35.1667,8.5 35.5,9C 34.1439,10.5671 33.4772,12.4004 33.5,14.5 Z"/></g>
<g><path style="opacity:0.56" fill="#f99ea5" d="M 33.5,14.5 C 33.21,25.8841 33.5433,37.2175 34.5,48.5C 33.8333,48.1667 33.1667,47.8333 32.5,47.5C 32.1721,36.3206 32.5054,25.3206 33.5,14.5 Z"/></g>
<g><path style="opacity:0.304" fill="#dbc7fe" d="M 76.5,10.5 C 77.1174,10.6107 77.6174,10.944 78,11.5C 78.8267,24.3401 78.66,37.0067 77.5,49.5C 77.7959,36.4506 77.4626,23.4506 76.5,10.5 Z"/></g>
<g><path style="opacity:0.982" fill="#ea8089" d="M 34.5,5.5 C 37.1667,5.5 39.8333,5.5 42.5,5.5C 34.7431,9.21807 35.0764,10.8847 43.5,10.5C 43.5,10.8333 43.5,11.1667 43.5,11.5C 39.5669,10.8574 36.2336,11.8574 33.5,14.5C 33.4772,12.4004 34.1439,10.5671 35.5,9C 35.1667,8.5 34.8333,8 34.5,7.5C 33.2638,8.24585 31.9305,8.57918 30.5,8.5C 30.6882,10.1033 30.1882,11.4366 29,12.5C 27.9533,25.6362 28.4533,38.6362 30.5,51.5C 31.675,51.719 32.675,51.3857 33.5,50.5C 32.8728,49.5832 32.5394,48.5832 32.5,47.5C 33.1667,47.8333 33.8333,48.1667 34.5,48.5C 34.4142,49.4959 34.7476,50.3292 35.5,51C 38.0467,51.5522 40.0467,52.8856 41.5,55C 38.854,55.4974 36.1873,55.6641 33.5,55.5C 30.5722,54.4086 28.4055,52.4086 27,49.5C 26.3333,37.1667 26.3333,24.8333 27,12.5C 28.083,8.58167 30.583,6.24834 34.5,5.5 Z"/></g>
<g><path style="opacity:0.446" fill="#c9a1f9" d="M 68.5,11.5 C 69.8333,11.5 71.1667,11.5 72.5,11.5C 72.8283,23.3453 72.4949,35.012 71.5,46.5C 71.6665,35.8281 71.4998,25.1615 71,14.5C 69.955,13.6266 69.1217,12.6266 68.5,11.5 Z"/></g>
<g><path style="opacity:0.991" fill="#8963d1" d="M 94.5,14.5 C 94.5,15.1667 94.5,15.8333 94.5,16.5C 94.5,17.1667 94.5,17.8333 94.5,18.5C 94.5,22.5 94.5,26.5 94.5,30.5C 94.2598,36.227 94.5931,41.8936 95.5,47.5C 94.1714,42.3762 93.5048,36.8762 93.5,31C 93.5006,25.3229 93.8339,19.8229 94.5,14.5 Z"/></g>
<g><path style="opacity:1" fill="#9455ea" d="M 76.5,10.5 C 77.4626,23.4506 77.7959,36.4506 77.5,49.5C 77.573,51.0269 76.9063,52.0269 75.5,52.5C 74.1667,52.5 72.8333,52.5 71.5,52.5C 71.5,50.8333 71.5,49.1667 71.5,47.5C 71.5,47.1667 71.5,46.8333 71.5,46.5C 72.4949,35.012 72.8283,23.3453 72.5,11.5C 71.1667,11.5 69.8333,11.5 68.5,11.5C 66.8767,10.2206 65.21,8.88724 63.5,7.5C 64.6667,7.16667 65.8333,6.83333 67,6.5C 69.8298,8.46174 72.9965,9.79507 76.5,10.5 Z"/></g>
<g><path style="opacity:0.949" fill="#f4e2b7" d="M 278.5,47.5 C 278.167,47.5 277.833,47.5 277.5,47.5C 278.49,39.5228 278.657,31.5228 278,23.5C 275.189,21.8203 273.356,22.4869 272.5,25.5C 270.25,25.8186 268.25,25.3186 266.5,24C 267.167,23.3333 267.833,22.6667 268.5,22C 271.372,21.6852 274.205,21.1852 277,20.5C 277.772,20.6448 278.439,20.9781 279,21.5C 279.824,30.3433 279.657,39.0099 278.5,47.5 Z"/></g>
<g><path style="opacity:0.004" fill="#fefffe" d="M 370.5,23.5 C 371.833,24.1667 371.833,24.1667 370.5,23.5 Z"/></g>
<g><path style="opacity:0.004" fill="#fefffe" d="M 83.5,24.5 C 84.8333,25.1667 84.8333,25.1667 83.5,24.5 Z"/></g>
<g><path style="opacity:0.941" fill="#f3d5a3" d="M 185.5,71.5 C 185.5,56.8333 185.5,42.1667 185.5,27.5C 184.082,25.6921 182.082,25.0254 179.5,25.5C 179.5,42.1667 179.5,58.8333 179.5,75.5C 178.732,76.2625 178.232,77.2625 178,78.5C 177.329,79.2524 176.496,79.5858 175.5,79.5C 176.801,78.1184 177.634,76.4517 178,74.5C 178.667,58.8333 178.667,43.1667 178,27.5C 175.595,26.7256 173.095,26.2256 170.5,26C 169.167,25.3333 169.167,24.6667 170.5,24C 178.665,23.0363 186.665,23.3697 194.5,25C 192.111,26.0961 189.611,26.9294 187,27.5C 186.831,42.3391 186.331,57.0057 185.5,71.5 Z"/></g>
<g><path style="opacity:0.89" fill="#f2cf98" d="M 354.5,36.5 C 353.504,36.5858 352.671,36.2524 352,35.5C 350.924,31.2861 348.258,28.6194 344,27.5C 343.5,27.8333 343,28.1667 342.5,28.5C 344.415,30.0712 345.415,32.0712 345.5,34.5C 341.861,29.5106 336.861,26.844 330.5,26.5C 327.497,27.0851 324.497,27.7518 321.5,28.5C 320.353,41.121 320.186,53.7876 321,66.5C 321.513,67.5266 322.013,68.5266 322.5,69.5C 321.5,69.5 320.5,69.5 319.5,69.5C 319.5,54.8333 319.5,40.1667 319.5,25.5C 316.813,25.3359 314.146,25.5026 311.5,26C 312.056,26.3826 312.389,26.8826 312.5,27.5C 308.759,28.4015 306.759,27.0681 306.5,23.5C 317.838,23.3335 329.172,23.5001 340.5,24C 347.557,25.6651 352.224,29.8318 354.5,36.5 Z"/></g>
<g><path style="opacity:0.004" fill="#fefffe" d="M 161.5,27.5 C 162.833,28.1667 162.833,28.1667 161.5,27.5 Z"/></g>
<g><path style="opacity:0.004" fill="#fefffe" d="M 370.5,28.5 C 371.833,29.1667 371.833,29.1667 370.5,28.5 Z"/></g>
<g><path style="opacity:1" fill="#fabe61" d="M 322.5,69.5 C 322.611,70.1174 322.944,70.6174 323.5,71C 320.183,71.4983 316.85,71.665 313.5,71.5C 313.829,57.6565 313.496,43.9898 312.5,30.5C 312.5,29.5 312.5,28.5 312.5,27.5C 312.389,26.8826 312.056,26.3826 311.5,26C 314.146,25.5026 316.813,25.3359 319.5,25.5C 319.5,40.1667 319.5,54.8333 319.5,69.5C 320.5,69.5 321.5,69.5 322.5,69.5 Z"/></g>
<g><path style="opacity:0.004" fill="#fefffe" d="M 156.5,32.5 C 157.833,33.1667 157.833,33.1667 156.5,32.5 Z"/></g>
<g><path style="opacity:0.004" fill="#fefffe" d="M 142.5,33.5 C 143.833,34.1667 143.833,34.1667 142.5,33.5 Z"/></g>
<g><path style="opacity:0.004" fill="#fefffe" d="M 224.5,34.5 C 225.833,35.1667 225.833,35.1667 224.5,34.5 Z"/></g>
<g><path style="opacity:0.914" fill="#f5d095" d="M 407.5,42.5 C 406.163,41.6851 405.163,40.5185 404.5,39C 403.552,38.5172 402.552,38.3505 401.5,38.5C 403.29,43.996 404.623,49.6626 405.5,55.5C 403.596,50.9723 401.763,46.3056 400,41.5C 398.644,40.6198 397.144,40.2865 395.5,40.5C 396.174,37.0933 398.341,35.76 402,36.5C 406.342,36.1794 408.176,38.1794 407.5,42.5 Z"/></g>
<g><path style="opacity:0.855" fill="#f3e1c2" d="M 427.5,47.5 C 427.959,44.1226 428.626,40.7893 429.5,37.5C 427.517,37.1568 426.183,37.8235 425.5,39.5C 420.648,39.8715 419.815,38.5381 423,35.5C 426.535,35.9683 430.368,36.635 434.5,37.5C 433.482,38.8524 432.149,39.8524 430.5,40.5C 429.67,43.0164 428.67,45.3498 427.5,47.5 Z"/></g>
<g><path style="opacity:0.714" fill="#f4d09a" d="M 272.5,25.5 C 273.496,40.6576 273.83,55.9909 273.5,71.5C 274.833,71.5 276.167,71.5 277.5,71.5C 277.5,63.5 277.5,55.5 277.5,47.5C 277.833,47.5 278.167,47.5 278.5,47.5C 278.281,48.675 278.614,49.675 279.5,50.5C 284.948,46.5553 289.948,42.0553 294.5,37C 297.176,36.2604 299.842,35.9271 302.5,36C 303.833,37 303.833,38 302.5,39C 297.018,41.577 292.018,44.9104 287.5,49C 288.758,50.7409 289.758,52.5742 290.5,54.5C 288.394,53.4336 286.894,51.7669 286,49.5C 284.417,51.6987 284.25,54.032 285.5,56.5C 284.115,55.4264 282.949,54.0931 282,52.5C 281.333,53.1667 280.667,53.8333 280,54.5C 279.171,59.533 279.338,64.533 280.5,69.5C 282.55,70.0766 283.55,71.4099 283.5,73.5C 278.489,73.6659 273.489,73.4993 268.5,73C 268.043,72.586 267.709,72.086 267.5,71.5C 268.991,70.7564 270.491,70.0897 272,69.5C 272.5,54.8371 272.667,40.1705 272.5,25.5 Z"/></g>
<g><path style="opacity:0.961" fill="#f5dcb1" d="M 391.5,43.5 C 389.463,41.4704 387.13,39.8037 384.5,38.5C 383.913,39.2334 383.913,40.2334 384.5,41.5C 380.233,38.6333 376.233,38.9667 372.5,42.5C 372.715,40.8212 372.048,39.8212 370.5,39.5C 373.043,37.4272 376.043,36.0938 379.5,35.5C 382.673,36.2105 385.673,37.3771 388.5,39C 390.141,40.129 391.141,41.629 391.5,43.5 Z"/></g>
<g><path style="opacity:0.975" fill="#f6d29a" d="M 442.5,47.5 C 441.834,44.9723 441.168,42.3056 440.5,39.5C 439.148,40.5244 437.815,41.5244 436.5,42.5C 436.511,40.9826 437.177,39.8159 438.5,39C 444.838,34.9824 451.338,34.8157 458,38.5C 458.498,41.4816 458.665,44.4816 458.5,47.5C 457.325,47.719 456.325,47.3857 455.5,46.5C 453.269,39.6266 449.102,37.9599 443,41.5C 442.505,43.4727 442.338,45.4727 442.5,47.5 Z"/></g>
<g><path style="opacity:0.004" fill="#fefffe" d="M 229.5,40.5 C 230.833,41.1667 230.833,41.1667 229.5,40.5 Z"/></g>
<g><path style="opacity:0.004" fill="#fefffe" d="M 359.5,40.5 C 360.833,41.1667 360.833,41.1667 359.5,40.5 Z"/></g>
<g><path style="opacity:0.004" fill="#fefffe" d="M 152.5,41.5 C 153.833,42.1667 153.833,42.1667 152.5,41.5 Z"/></g>
<g><path style="opacity:0.004" fill="#fefffe" d="M 7.5,43.5 C 8.83333,44.1667 8.83333,44.1667 7.5,43.5 Z"/></g>
<g><path style="opacity:0.004" fill="#f3edfe" d="M 88.5,44.5 C 88.8333,46.5 89.1667,48.5 89.5,50.5C 87.5389,48.68 87.2056,46.68 88.5,44.5 Z"/></g>
<g><path style="opacity:0.004" fill="#fefffe" d="M 432.5,44.5 C 433.833,45.1667 433.833,45.1667 432.5,44.5 Z"/></g>
<g><path style="opacity:0.004" fill="#fefffe" d="M 459.5,45.5 C 460.833,46.1667 460.833,46.1667 459.5,45.5 Z"/></g>
<g><path style="opacity:0.004" fill="#fefffe" d="M 142.5,46.5 C 143.833,47.1667 143.833,47.1667 142.5,46.5 Z"/></g>
<g><path style="opacity:0.655" fill="#f5d19e" d="M 345.5,35.5 C 347.074,35.9371 348.241,36.9371 349,38.5C 349.667,43.1667 349.667,47.8333 349,52.5C 348.768,53.7375 348.268,54.7375 347.5,55.5C 349.135,48.5854 348.469,41.9187 345.5,35.5 Z"/></g>
<g><path style="opacity:1" fill="#fabd60" d="M 243.5,42.5 C 243.5,43.1667 243.167,43.5 242.5,43.5C 241.057,44.3351 240.057,45.6684 239.5,47.5C 238.104,53.9722 238.437,60.3055 240.5,66.5C 238.053,66.385 236.053,65.385 234.5,63.5C 232.048,53.7489 234.714,45.7489 242.5,39.5C 243.386,40.325 243.719,41.325 243.5,42.5 Z"/></g>
<g><path style="opacity:0.988" fill="#f5d5a7" d="M 263.5,48.5 C 262.542,48.9528 261.708,49.6195 261,50.5C 259.386,46.6582 257.219,43.1582 254.5,40C 250.259,38.8118 246.592,39.6451 243.5,42.5C 243.719,41.325 243.386,40.325 242.5,39.5C 234.714,45.7489 232.048,53.7489 234.5,63.5C 229.973,49.2253 234.973,39.892 249.5,35.5C 253.701,37.1237 258.034,38.1237 262.5,38.5C 262.342,41.9023 262.676,45.2356 263.5,48.5 Z"/></g>
<g><path style="opacity:0.004" fill="#fefffe" d="M 358.5,47.5 C 359.833,48.1667 359.833,48.1667 358.5,47.5 Z"/></g>
<g><path style="opacity:0.969" fill="#f5cf94" d="M 427.5,47.5 C 424.76,55.9695 421.76,64.3029 418.5,72.5C 415.966,73.7766 413.466,73.7766 411,72.5C 409.056,66.8349 407.222,61.1682 405.5,55.5C 409.248,60.0646 411.248,65.398 411.5,71.5C 413.527,71.6621 415.527,71.4955 417.5,71C 418.337,69.9887 418.67,68.8221 418.5,67.5C 416.821,67.7148 415.821,67.0481 415.5,65.5C 416.75,65.4226 417.583,64.756 418,63.5C 420.816,55.5532 423.316,47.5532 425.5,39.5C 426.183,37.8235 427.517,37.1568 429.5,37.5C 428.626,40.7893 427.959,44.1226 427.5,47.5 Z"/></g>
<g><path style="opacity:0.004" fill="#fefffe" d="M 241.5,48.5 C 242.833,49.1667 242.833,49.1667 241.5,48.5 Z"/></g>
<g><path style="opacity:0.004" fill="#fefffe" d="M 263.5,48.5 C 264.833,49.1667 264.833,49.1667 263.5,48.5 Z"/></g>
<g><path style="opacity:0.894" fill="#f9e2b2" d="M 371.5,43.5 C 371.579,44.9305 371.246,46.2638 370.5,47.5C 375.12,48.4933 379.786,48.8266 384.5,48.5C 382.958,49.1635 381.291,49.8302 379.5,50.5C 383.445,51.4909 387.445,51.8242 391.5,51.5C 384.352,52.4916 377.019,52.825 369.5,52.5C 369.5,54.1667 369.5,55.8333 369.5,57.5C 368.549,56.0813 368.216,54.4147 368.5,52.5C 369.228,49.9205 369.728,47.2538 370,44.5C 370.383,43.944 370.883,43.6107 371.5,43.5 Z"/></g>
<g><path style="opacity:1" fill="#f6c479" d="M 391.5,43.5 C 392.38,45.1368 393.046,46.9701 393.5,49C 393.361,50.301 392.695,51.1344 391.5,51.5C 387.445,51.8242 383.445,51.4909 379.5,50.5C 381.291,49.8302 382.958,49.1635 384.5,48.5C 385.623,46.312 385.623,43.9787 384.5,41.5C 383.913,40.2334 383.913,39.2334 384.5,38.5C 387.13,39.8037 389.463,41.4704 391.5,43.5 Z"/></g>
<g><path style="opacity:1" fill="#ac5cc7" d="M 71.5,47.5 C 71.5,49.1667 71.5,50.8333 71.5,52.5C 72.8333,52.5 74.1667,52.5 75.5,52.5C 74.7377,54.2624 73.4044,55.2624 71.5,55.5C 65.5,55.5 59.5,55.5 53.5,55.5C 53.7035,53.6096 53.0368,52.1096 51.5,51C 57.0158,50.8267 62.3491,50.3267 67.5,49.5C 69.0618,49.2671 70.3951,48.6005 71.5,47.5 Z"/></g>
<g><path style="opacity:1" fill="#9e70ec" d="M 130.5,11.5 C 132.423,11.795 134.09,12.6283 135.5,14C 134.678,25.0905 134.178,36.2571 134,47.5C 133.5,48.6667 132.667,49.5 131.5,50C 133.088,52.4787 135.088,52.9787 137.5,51.5C 137.106,53.7099 135.773,55.0432 133.5,55.5C 121.655,55.8283 109.988,55.4949 98.5,54.5C 109.5,54.5 120.5,54.5 131.5,54.5C 131.719,53.325 131.386,52.325 130.5,51.5C 120.842,52.1669 111.175,52.5002 101.5,52.5C 98.1109,52.3608 96.1109,50.6941 95.5,47.5C 96.2891,47.7828 96.9558,48.2828 97.5,49C 108.5,49.6667 119.5,49.6667 130.5,49C 131,48.5 131.5,48 132,47.5C 133.617,37.2659 133.95,26.9325 133,16.5C 132.634,14.5483 131.801,12.8816 130.5,11.5 Z"/></g>
<g><path style="opacity:1" fill="#f8c26e" d="M 442.5,47.5 C 447.441,50.3074 452.441,53.1407 457.5,56C 458.823,56.8159 459.489,57.9826 459.5,59.5C 459.789,62.6492 459.289,65.6492 458,68.5C 455.955,70.0432 454.455,69.7099 453.5,67.5C 453.945,64.6354 453.278,62.1354 451.5,60C 446.256,57.7971 441.422,54.9638 437,51.5C 435.281,48.5457 435.115,45.5457 436.5,42.5C 437.815,41.5244 439.148,40.5244 440.5,39.5C 441.168,42.3056 441.834,44.9723 442.5,47.5 Z"/></g>
<g><path style="opacity:0.004" fill="#fefffe" d="M 492.5,52.5 C 493.833,53.1667 493.833,53.1667 492.5,52.5 Z"/></g>
<g><path style="opacity:1" fill="#d67fb2" d="M 34.5,48.5 C 45.4187,49.4766 56.4187,49.8099 67.5,49.5C 62.3491,50.3267 57.0158,50.8267 51.5,51C 53.0368,52.1096 53.7035,53.6096 53.5,55.5C 59.5,55.5 65.5,55.5 71.5,55.5C 58.8333,56.8333 46.1667,56.8333 33.5,55.5C 36.1873,55.6641 38.854,55.4974 41.5,55C 40.0467,52.8856 38.0467,51.5522 35.5,51C 34.7476,50.3292 34.4142,49.4959 34.5,48.5 Z"/></g>
<g><path style="opacity:1" fill="#f9be68" d="M 290.5,54.5 C 294.399,59.2844 298.066,64.2844 301.5,69.5C 303.078,71.3176 302.578,72.3176 300,72.5C 298.774,72.3552 297.607,72.0219 296.5,71.5C 293.056,66.2548 289.39,61.2548 285.5,56.5C 284.25,54.032 284.417,51.6987 286,49.5C 286.894,51.7669 288.394,53.4336 290.5,54.5 Z"/></g>
<g><path style="opacity:0.937" fill="#f4d199" d="M 370.5,39.5 C 362.838,48.4745 361.838,58.1412 367.5,68.5C 360.516,60.9418 359.683,52.6085 365,43.5C 366.451,41.5359 368.284,40.2026 370.5,39.5 Z"/></g>
<g><path style="opacity:0.588" fill="#b899ec" d="M 89.5,50.5 C 92.419,52.1285 95.419,53.4618 98.5,54.5C 109.988,55.4949 121.655,55.8283 133.5,55.5C 120.673,56.6602 107.673,56.8269 94.5,56C 91.921,54.9243 90.2543,53.091 89.5,50.5 Z"/></g>
<g><path style="opacity:1" fill="#f5ca85" d="M 185.5,27.5 C 185.5,42.1667 185.5,56.8333 185.5,71.5C 184.535,77.9697 180.868,82.1363 174.5,84C 170.449,84.5177 166.449,84.1843 162.5,83C 158.5,80.3333 158.5,77.6667 162.5,75C 167.16,73.839 169.16,75.6723 168.5,80.5C 170.903,80.552 173.236,80.2186 175.5,79.5C 176.496,79.5858 177.329,79.2524 178,78.5C 178.232,77.2625 178.732,76.2625 179.5,75.5C 179.281,76.675 179.614,77.675 180.5,78.5C 181.861,76.9716 183.028,75.3049 184,73.5C 184.169,57.9945 184.669,42.6612 185.5,27.5 Z"/></g>
<g><path style="opacity:0.941" fill="#f6cf96" d="M 222.5,43.5 C 221.038,42.5423 219.705,41.3756 218.5,40C 217.668,39.3123 217.002,39.479 216.5,40.5C 217.439,44.7649 217.772,49.0983 217.5,53.5C 208.679,53.0027 204.013,57.0027 203.5,65.5C 201.803,63.6948 200.97,61.3615 201,58.5C 197.285,63.4735 198.119,67.6401 203.5,71C 206.146,71.4974 208.813,71.6641 211.5,71.5C 207.563,72.8802 203.563,72.7136 199.5,71C 195.105,65.0931 195.772,59.7598 201.5,55C 206.088,52.1033 211.088,50.6033 216.5,50.5C 217.1,46.4836 216.1,42.9836 213.5,40C 208.057,38.8067 204.89,40.9734 204,46.5C 199.154,48.3225 197.488,46.6558 199,41.5C 204.755,35.7655 211.255,34.5989 218.5,38C 220.464,39.451 221.797,41.2843 222.5,43.5 Z"/></g>
<g><path style="opacity:1" fill="#fabd5f" d="M 370.5,39.5 C 372.048,39.8212 372.715,40.8212 372.5,42.5C 372.5,43.1667 372.167,43.5 371.5,43.5C 370.883,43.6107 370.383,43.944 370,44.5C 369.728,47.2538 369.228,49.9205 368.5,52.5C 367.844,53.6216 367.511,54.9549 367.5,56.5C 367.928,59.4119 368.595,62.2452 369.5,65C 369.392,66.6811 368.725,67.8478 367.5,68.5C 361.838,58.1412 362.838,48.4745 370.5,39.5 Z"/></g>
<g><path style="opacity:1" fill="#fabd5f" d="M 277.5,47.5 C 277.5,55.5 277.5,63.5 277.5,71.5C 276.167,71.5 274.833,71.5 273.5,71.5C 273.83,55.9909 273.496,40.6576 272.5,25.5C 273.356,22.4869 275.189,21.8203 278,23.5C 278.657,31.5228 278.49,39.5228 277.5,47.5 Z"/></g>
<g><path style="opacity:1" fill="#f6c986" d="M 354.5,36.5 C 357.914,46.2882 356.748,55.6215 351,64.5C 349.871,66.1412 348.371,67.1412 346.5,67.5C 348.959,63.2616 351.459,58.9283 354,54.5C 354.499,48.5092 354.666,42.5092 354.5,36.5 Z"/></g>
<g><path style="opacity:0.651" fill="#c4c9f2" d="M 120.5,61.5 C 116.766,61.3227 113.099,61.6561 109.5,62.5C 112.904,59.0633 116.571,58.73 120.5,61.5 Z"/></g>
<g><path style="opacity:1" fill="#fabc5d" d="M 354.5,36.5 C 354.666,42.5092 354.499,48.5092 354,54.5C 351.459,58.9283 348.959,63.2616 346.5,67.5C 344.545,68.3235 342.545,68.4901 340.5,68C 344.767,65.2555 347.101,61.4221 347.5,56.5C 347.5,56.1667 347.5,55.8333 347.5,55.5C 348.268,54.7375 348.768,53.7375 349,52.5C 349.667,47.8333 349.667,43.1667 349,38.5C 348.241,36.9371 347.074,35.9371 345.5,35.5C 345.5,35.1667 345.5,34.8333 345.5,34.5C 345.415,32.0712 344.415,30.0712 342.5,28.5C 343,28.1667 343.5,27.8333 344,27.5C 348.258,28.6194 350.924,31.2861 352,35.5C 352.671,36.2524 353.504,36.5858 354.5,36.5 Z"/></g>
<g><path style="opacity:0.988" fill="#f8d8a1" d="M 285.5,56.5 C 289.39,61.2548 293.056,66.2548 296.5,71.5C 297.607,72.0219 298.774,72.3552 300,72.5C 302.578,72.3176 303.078,71.3176 301.5,69.5C 305.084,69.8204 305.751,70.9871 303.5,73C 300.366,73.7901 297.366,73.4568 294.5,72C 291.245,66.9284 288.245,61.7618 285.5,56.5 Z"/></g>
<g><path style="opacity:1" fill="#f9c16d" d="M 407.5,42.5 C 410.537,49.942 413.204,57.6086 415.5,65.5C 415.821,67.0481 416.821,67.7148 418.5,67.5C 418.67,68.8221 418.337,69.9887 417.5,71C 415.527,71.4955 413.527,71.6621 411.5,71.5C 411.248,65.398 409.248,60.0646 405.5,55.5C 404.623,49.6626 403.29,43.996 401.5,38.5C 402.552,38.3505 403.552,38.5172 404.5,39C 405.163,40.5185 406.163,41.6851 407.5,42.5 Z"/></g>
<g><path style="opacity:1" fill="#fabe60" d="M 203.5,65.5 C 203.5,66.8333 203.5,68.1667 203.5,69.5C 206.698,68.9644 209.365,69.631 211.5,71.5C 208.813,71.6641 206.146,71.4974 203.5,71C 198.119,67.6401 197.285,63.4735 201,58.5C 200.97,61.3615 201.803,63.6948 203.5,65.5 Z"/></g>
<g><path style="opacity:0.341" fill="#fbe9cf" d="M 223.5,45.5 C 224.329,52.6552 224.829,59.9885 225,67.5C 226.333,68.8333 227.667,68.8333 229,67.5C 229.692,68.0253 230.192,68.6919 230.5,69.5C 227.708,73.704 224.375,74.3707 220.5,71.5C 222.924,71.8076 225.257,71.4742 227.5,70.5C 226.372,69.7379 225.205,69.0712 224,68.5C 223.5,60.8406 223.334,53.1739 223.5,45.5 Z"/></g>
<g><path style="opacity:1" fill="#f5d299" d="M 242.5,43.5 C 242.371,45.2161 242.038,46.8828 241.5,48.5C 238.764,55.6534 240.098,62.1534 245.5,68C 248.366,69.4568 251.366,69.7901 254.5,69C 257.941,67.224 261.108,65.0574 264,62.5C 264.692,63.0253 265.192,63.6919 265.5,64.5C 258.887,73.316 250.553,75.4826 240.5,71C 237.882,68.8943 235.882,66.3943 234.5,63.5C 236.053,65.385 238.053,66.385 240.5,66.5C 238.437,60.3055 238.104,53.9722 239.5,47.5C 240.057,45.6684 241.057,44.3351 242.5,43.5 Z"/></g>
<g><path style="opacity:0.004" fill="#fefffe" d="M 285.5,67.5 C 286.833,68.1667 286.833,68.1667 285.5,67.5 Z"/></g>
<g><path style="opacity:1" fill="#cd78b7" d="M 33.5,67.5 C 46.1667,66.1667 58.8333,66.1667 71.5,67.5C 66.4889,67.3341 61.4889,67.5007 56.5,68C 55.1667,69 55.1667,70 56.5,71C 55.5842,71.2784 54.9175,71.7784 54.5,72.5C 50.8333,72.5 47.1667,72.5 43.5,72.5C 44.5676,71.5655 45.901,71.2322 47.5,71.5C 47.67,70.1779 47.3366,69.0113 46.5,68C 42.1794,67.501 37.8461,67.3343 33.5,67.5 Z"/></g>
<g><path style="opacity:1" fill="#fabd5e" d="M 185.5,27.5 C 184.669,42.6612 184.169,57.9945 184,73.5C 183.028,75.3049 181.861,76.9716 180.5,78.5C 179.614,77.675 179.281,76.675 179.5,75.5C 179.5,58.8333 179.5,42.1667 179.5,25.5C 182.082,25.0254 184.082,25.6921 185.5,27.5 Z"/></g>
<g><path style="opacity:0.804" fill="#f6d6a3" d="M 217.5,53.5 C 218.645,57.3112 218.812,61.3112 218,65.5C 217.5,66 217,66.5 216.5,67C 219.072,67.4315 220.406,68.9315 220.5,71.5C 219.21,70.9423 218.377,69.9423 218,68.5C 216.007,69.914 213.84,70.914 211.5,71.5C 209.365,69.631 206.698,68.9644 203.5,69.5C 203.5,68.1667 203.5,66.8333 203.5,65.5C 208.035,69.2763 212.535,68.943 217,64.5C 217.298,60.6343 217.464,56.9676 217.5,53.5 Z"/></g>
<g><path style="opacity:0.996" fill="#f7be67" d="M 222.5,43.5 C 223.338,43.8417 223.672,44.5084 223.5,45.5C 223.334,53.1739 223.5,60.8406 224,68.5C 225.205,69.0712 226.372,69.7379 227.5,70.5C 225.257,71.4742 222.924,71.8076 220.5,71.5C 220.406,68.9315 219.072,67.4315 216.5,67C 217,66.5 217.5,66 218,65.5C 218.812,61.3112 218.645,57.3112 217.5,53.5C 217.772,49.0983 217.439,44.7649 216.5,40.5C 217.002,39.479 217.668,39.3123 218.5,40C 219.705,41.3756 221.038,42.5423 222.5,43.5 Z"/></g>
<g><path style="opacity:1" fill="#a761cf" d="M 71.5,67.5 C 75.1667,67.8333 77.1667,69.8333 77.5,73.5C 77.5,74.1667 77.5,74.8333 77.5,75.5C 75.9123,73.6806 74.2456,71.8472 72.5,70C 71.552,69.5172 70.552,69.3505 69.5,69.5C 70.0427,72.0384 71.0427,74.3718 72.5,76.5C 72.1667,76.5 71.8333,76.5 71.5,76.5C 70.8333,75.1667 69.8333,74.1667 68.5,73.5C 64.03,72.5139 59.3633,72.1805 54.5,72.5C 54.9175,71.7784 55.5842,71.2784 56.5,71C 55.1667,70 55.1667,69 56.5,68C 61.4889,67.5007 66.4889,67.3341 71.5,67.5 Z"/></g>
<g><path style="opacity:1" fill="#d35d88" d="M 31.5,68.5 C 31.8417,67.6618 32.5084,67.3284 33.5,67.5C 37.8461,67.3343 42.1794,67.501 46.5,68C 47.3366,69.0113 47.67,70.1779 47.5,71.5C 45.901,71.2322 44.5676,71.5655 43.5,72.5C 40.8333,72.5 38.1667,72.5 35.5,72.5C 36.343,70.8267 37.6763,69.66 39.5,69C 36.854,68.5026 34.1873,68.3359 31.5,68.5 Z"/></g>
<g><path style="opacity:0.924" fill="#f5cf95" d="M 368.5,52.5 C 368.216,54.4147 368.549,56.0813 369.5,57.5C 370.769,68.134 376.436,71.634 386.5,68C 388.96,66.5422 391.127,64.7089 393,62.5C 393.87,63.1079 394.37,63.9412 394.5,65C 387.893,73.7079 379.559,75.7079 369.5,71C 368.619,70.2917 367.953,69.4584 367.5,68.5C 368.725,67.8478 369.392,66.6811 369.5,65C 368.595,62.2452 367.928,59.4119 367.5,56.5C 367.511,54.9549 367.844,53.6216 368.5,52.5 Z"/></g>
<g><path style="opacity:0.961" fill="#f7d198" d="M 459.5,59.5 C 462.179,66.9601 459.512,71.4601 451.5,73C 446.494,73.8495 441.661,73.3495 437,71.5C 434.531,67.8889 434.198,64.2222 436,60.5C 438.186,63.6813 440.686,66.5146 443.5,69C 447.149,69.963 450.482,69.463 453.5,67.5C 454.455,69.7099 455.955,70.0432 458,68.5C 459.289,65.6492 459.789,62.6492 459.5,59.5 Z"/></g>
<g><path style="opacity:0.835" fill="#f5dcb3" d="M 312.5,30.5 C 313.496,43.9898 313.829,57.6565 313.5,71.5C 316.85,71.665 320.183,71.4983 323.5,71C 322.944,70.6174 322.611,70.1174 322.5,69.5C 334.109,70.9931 342.442,66.6598 347.5,56.5C 347.101,61.4221 344.767,65.2555 340.5,68C 342.545,68.4901 344.545,68.3235 346.5,67.5C 344.351,69.7458 341.684,71.2458 338.5,72C 334.721,72.9061 330.888,73.4061 327,73.5C 321.145,72.4903 315.312,72.3236 309.5,73C 308.306,70.3422 309.306,69.1756 312.5,69.5C 312.5,56.5 312.5,43.5 312.5,30.5 Z"/></g>
<g><path style="opacity:0.594" fill="#fef9fc" d="M 35.5,73.5 C 35.5,73.1667 35.5,72.8333 35.5,72.5C 38.1667,72.5 40.8333,72.5 43.5,72.5C 47.1667,72.5 50.8333,72.5 54.5,72.5C 59.3633,72.1805 64.03,72.5139 68.5,73.5C 64.7267,73.2633 61.0601,73.7633 57.5,75C 59.9898,76.128 60.9898,78.128 60.5,81C 60.1467,84.5598 59.48,88.0598 58.5,91.5C 59.4545,94.221 59.4545,96.8876 58.5,99.5C 57.5258,97.2573 57.1924,94.924 57.5,92.5C 55.8008,92.6602 54.1341,92.4935 52.5,92C 48.5983,86.6863 43.9317,82.1863 38.5,78.5C 36.5808,79.6125 34.9142,80.9458 33.5,82.5C 33.5,80.8333 33.5,79.1667 33.5,77.5C 38.8658,77.5416 39.5325,76.2083 35.5,73.5 Z"/></g>
<g><path style="opacity:0.004" fill="#fefffe" d="M 457.5,76.5 C 458.833,77.1667 458.833,77.1667 457.5,76.5 Z"/></g>
<g><path style="opacity:0.465" fill="#d3adfe" d="M 71.5,76.5 C 71.8333,76.5 72.1667,76.5 72.5,76.5C 72.8276,87.0135 72.4942,97.3468 71.5,107.5C 71.5,106.167 71.5,104.833 71.5,103.5C 71.5,99.1667 71.5,94.8333 71.5,90.5C 71.2854,86.0135 71.2854,81.3469 71.5,76.5 Z"/></g>
<g><path style="opacity:1" fill="#9554e8" d="M 77.5,75.5 C 77.7906,86.8653 77.4573,98.1986 76.5,109.5C 73.4221,114.205 69.0888,116.538 63.5,116.5C 63.5,115.167 63.5,113.833 63.5,112.5C 66.2062,112.425 68.8728,112.092 71.5,111.5C 71.5,110.5 71.5,109.5 71.5,108.5C 71.5,108.167 71.5,107.833 71.5,107.5C 72.4942,97.3468 72.8276,87.0135 72.5,76.5C 71.0427,74.3718 70.0427,72.0384 69.5,69.5C 70.552,69.3505 71.552,69.5172 72.5,70C 74.2456,71.8472 75.9123,73.6806 77.5,75.5 Z"/></g>
<g><path style="opacity:0.649" fill="#f89ca5" d="M 35.5,73.5 C 34.3995,74.6049 33.7329,75.9382 33.5,77.5C 33.5,79.1667 33.5,80.8333 33.5,82.5C 33.5,88.1667 33.5,93.8333 33.5,99.5C 33.5,102.167 33.5,104.833 33.5,107.5C 32.5052,96.3456 32.1719,85.0123 32.5,73.5C 33.5,73.5 34.5,73.5 35.5,73.5 Z"/></g>
<g><path style="opacity:1" fill="#837deb" d="M 120.5,61.5 C 122.833,63.1667 124.833,65.1667 126.5,67.5C 126.343,68.8734 126.51,70.2068 127,71.5C 129.262,73.3837 131.428,75.3837 133.5,77.5C 134.246,78.7362 134.579,80.0695 134.5,81.5C 132.784,81.3713 131.117,81.038 129.5,80.5C 125.731,76.2288 121.731,72.0621 117.5,68C 115.365,67.3653 113.365,67.6986 111.5,69C 104.333,75.5 97.1667,82 90,88.5C 89.3333,90.1667 89.3333,91.8333 90,93.5C 92.1019,95.0948 93.6019,97.0948 94.5,99.5C 96.2134,101.907 97.5467,104.574 98.5,107.5C 98,107.833 97.5,108.167 97,108.5C 95.5054,106.837 93.672,105.837 91.5,105.5C 88.4475,102.424 85.6142,99.0905 83,95.5C 82.3333,92.1667 82.3333,88.8333 83,85.5C 91.4294,77.2281 100.263,69.5615 109.5,62.5C 113.099,61.6561 116.766,61.3227 120.5,61.5 Z"/></g>
<g><path style="opacity:1" fill="#c18bd8" d="M 126.5,67.5 C 132.91,73.5736 138.577,80.2402 143.5,87.5C 141.12,85.3135 138.454,83.6469 135.5,82.5C 135.5,84.1667 135.5,85.8333 135.5,87.5C 132.8,85.7656 130.8,83.4323 129.5,80.5C 131.117,81.038 132.784,81.3713 134.5,81.5C 134.579,80.0695 134.246,78.7362 133.5,77.5C 131.428,75.3837 129.262,73.3837 127,71.5C 126.51,70.2068 126.343,68.8734 126.5,67.5 Z"/></g>
<g><path style="opacity:0.004" fill="#fefffe" d="M 197.5,80.5 C 198.833,81.1667 198.833,81.1667 197.5,80.5 Z"/></g>
<g><path style="opacity:0.004" fill="#fefffe" d="M 451.5,81.5 C 452.833,82.1667 452.833,82.1667 451.5,81.5 Z"/></g>
<g><path style="opacity:0.004" fill="#fefffe" d="M 261.5,83.5 C 262.833,84.1667 262.833,84.1667 261.5,83.5 Z"/></g>
<g><path style="opacity:0.004" fill="#fefffe" d="M 271.5,84.5 C 272.833,85.1667 272.833,85.1667 271.5,84.5 Z"/></g>
<g><path style="opacity:0.004" fill="#fefffe" d="M 382.5,84.5 C 383.833,85.1667 383.833,85.1667 382.5,84.5 Z"/></g>
<g><path style="opacity:0.004" fill="#fefffe" d="M 491.5,86.5 C 492.833,87.1667 492.833,87.1667 491.5,86.5 Z"/></g>
<g><path style="opacity:0.004" fill="#fefffe" d="M 205.5,87.5 C 206.833,88.1667 206.833,88.1667 205.5,87.5 Z"/></g>
<g><path style="opacity:0.004" fill="#fefffe" d="M 467.5,89.5 C 468.833,90.1667 468.833,90.1667 467.5,89.5 Z"/></g>
<g><path style="opacity:0.004" fill="#fefffe" d="M 296.5,92.5 C 297.833,93.1667 297.833,93.1667 296.5,92.5 Z"/></g>
<g><path style="opacity:1" fill="#e06acb" d="M 143.5,87.5 C 145.307,91.6645 144.64,95.3311 141.5,98.5C 140.752,95.5027 140.085,92.5027 139.5,89.5C 138.423,88.2949 137.09,87.6282 135.5,87.5C 135.5,85.8333 135.5,84.1667 135.5,82.5C 138.454,83.6469 141.12,85.3135 143.5,87.5 Z"/></g>
<g><path style="opacity:1" fill="#f16c75" d="M 31.5,68.5 C 34.1873,68.3359 36.854,68.5026 39.5,69C 37.6763,69.66 36.343,70.8267 35.5,72.5C 35.5,72.8333 35.5,73.1667 35.5,73.5C 34.5,73.5 33.5,73.5 32.5,73.5C 32.1719,85.0123 32.5052,96.3456 33.5,107.5C 33.5,107.833 33.5,108.167 33.5,108.5C 33.3505,109.552 33.5172,110.552 34,111.5C 35.8254,112.103 37.6587,112.77 39.5,113.5C 39.8333,114.167 40.1667,114.833 40.5,115.5C 37.5023,116.643 34.5023,116.643 31.5,115.5C 29.4959,114.327 27.9959,112.66 27,110.5C 26.3333,98.1667 26.3333,85.8333 27,73.5C 27.6119,70.8854 29.1119,69.2187 31.5,68.5 Z"/></g>
<g><path style="opacity:0.004" fill="#fefffe" d="M 277.5,94.5 C 278.833,95.1667 278.833,95.1667 277.5,94.5 Z"/></g>
<g><path style="opacity:0.702" fill="#f1e2ce" d="M 308.5,95.5 C 310.924,95.1924 313.257,95.5258 315.5,96.5C 313.922,97.2978 312.256,97.7978 310.5,98C 314.299,99.5529 314.299,100.886 310.5,102C 311.949,103.117 313.616,103.784 315.5,104C 313.48,105.217 311.48,105.383 309.5,104.5C 308.516,101.572 308.183,98.5719 308.5,95.5 Z"/></g>
<g><path style="opacity:0.745" fill="#efe1cb" d="M 191.5,101.5 C 189.417,96.4137 191.083,94.5804 196.5,96C 197.711,96.8928 197.711,97.7261 196.5,98.5C 195.109,97.3554 193.776,97.3554 192.5,98.5C 196.375,98.7053 198.041,100.705 197.5,104.5C 195.167,104.5 192.833,104.5 190.5,104.5C 190.263,103.209 190.596,102.209 191.5,101.5 Z M 191.5,101.5 C 192.978,101.238 194.311,101.571 195.5,102.5C 193.76,103.809 192.427,103.476 191.5,101.5 Z"/></g>
<g><path style="opacity:0.682" fill="#f0dec3" d="M 203.5,95.5 C 205.613,97.691 207.28,100.358 208.5,103.5C 208.167,103.833 207.833,104.167 207.5,104.5C 205.298,103.22 203.132,103.22 201,104.5C 201.206,101.394 202.039,98.3939 203.5,95.5 Z"/></g>
<g><path style="opacity:0.925" fill="#f0e3c9" d="M 431.5,95.5 C 434.187,95.3359 436.854,95.5026 439.5,96C 437.257,98.2952 435.923,101.129 435.5,104.5C 434.692,102.577 434.192,100.577 434,98.5C 432.583,97.9221 431.75,96.9221 431.5,95.5 Z"/></g>
<g><path style="opacity:0.804" fill="#eee2c9" d="M 444.5,95.5 C 445.458,95.9528 446.292,96.6195 447,97.5C 447.642,99.7619 448.475,101.929 449.5,104C 446.5,103.333 443.5,103.333 440.5,104C 441.932,101.197 443.266,98.3637 444.5,95.5 Z"/></g>
<g><path style="opacity:0.804" fill="#e4ddcb" d="M 452.5,95.5 C 453.314,97.631 453.814,99.9644 454,102.5C 455.067,103.191 456.234,103.691 457.5,104C 455.559,104.743 453.726,104.576 452,103.5C 452.083,100.881 452.25,98.214 452.5,95.5 Z"/></g>
<g><path style="opacity:1" fill="#ea8dcc" d="M 135.5,87.5 C 137.09,87.6282 138.423,88.2949 139.5,89.5C 140.085,92.5027 140.752,95.5027 141.5,98.5C 144.64,95.3311 145.307,91.6645 143.5,87.5C 146.703,90.6835 147.203,94.3502 145,98.5C 138.607,105.728 131.44,112.061 123.5,117.5C 124.038,115.883 124.371,114.216 124.5,112.5C 127.723,111.555 130.723,110.055 133.5,108C 134.711,106.887 134.711,105.72 133.5,104.5C 134.145,103.354 134.978,102.354 136,101.5C 137.011,102.337 138.178,102.67 139.5,102.5C 139.778,100.654 139.111,99.3202 137.5,98.5C 134.349,101.15 131.349,103.984 128.5,107C 127.255,107.791 125.922,108.291 124.5,108.5C 128.787,104.55 133.12,100.55 137.5,96.5C 139.125,92.9535 138.458,89.9535 135.5,87.5 Z"/></g>
<g><path style="opacity:0.396" fill="#eee2cf" d="M 180.5,95.5 C 182.924,95.1924 185.257,95.5258 187.5,96.5C 185.922,97.2978 184.256,97.7978 182.5,98C 186.34,99.6399 186.34,101.14 182.5,102.5C 184.078,103.298 185.744,103.798 187.5,104C 185.19,104.497 182.857,104.663 180.5,104.5C 180.5,101.5 180.5,98.5 180.5,95.5 Z"/></g>
<g><path style="opacity:0.261" fill="#f1e6d1" d="M 411.5,95.5 C 412.474,96.635 413.641,97.635 415,98.5C 417.958,94.6854 421.125,94.5187 424.5,98C 422.512,98.1805 420.512,98.0138 418.5,97.5C 418.185,99.2259 418.019,100.893 418,102.5C 419.183,103.731 420.349,103.731 421.5,102.5C 420.975,101.808 420.308,101.308 419.5,101C 421.112,100.28 422.612,100.446 424,101.5C 424.667,102.167 424.667,102.833 424,103.5C 419.013,105.697 415.346,104.364 413,99.5C 412.57,105.791 411.737,105.958 410.5,100C 410.773,98.4672 411.106,96.9672 411.5,95.5 Z"/></g>
<g><path style="opacity:0.863" fill="#ece1d3" d="M 427.5,95.5 C 428.638,98.3035 428.805,101.304 428,104.5C 427.009,103.57 426.509,102.404 426.5,101C 426.943,99.175 427.277,97.3417 427.5,95.5 Z"/></g>
<g><path style="opacity:0.477" fill="#f0e4cc" d="M 221.5,95.5 C 223.467,95.2606 225.301,95.5939 227,96.5C 226.986,99.3644 226.82,102.031 226.5,104.5C 224.88,101.942 223.38,101.942 222,104.5C 221.667,104.167 221.333,103.833 221,103.5C 220.57,100.808 220.737,98.1411 221.5,95.5 Z M 223.5,97.5 C 226.137,99.1538 225.803,99.6538 222.5,99C 223.056,98.6174 223.389,98.1174 223.5,97.5 Z"/></g>
<g><path style="opacity:0.592" fill="#eee0c3" d="M 261.5,95.5 C 262.496,95.4142 263.329,95.7476 264,96.5C 265.513,99.0239 266.18,101.691 266,104.5C 263.429,103.755 260.929,103.421 258.5,103.5C 260.076,101.021 261.076,98.354 261.5,95.5 Z"/></g>
<g><path style="opacity:0.704" fill="#f2e0c9" d="M 277.5,95.5 C 277.817,98.5719 277.484,101.572 276.5,104.5C 274.851,103.352 273.351,102.019 272,100.5C 271.781,101.938 271.281,103.271 270.5,104.5C 269.167,101.5 269.167,98.5 270.5,95.5C 272.527,96.6933 274.027,98.36 275,100.5C 275.05,98.256 275.883,96.5893 277.5,95.5 Z"/></g>
<g><path style="opacity:0.526" fill="#f2e4d1" d="M 351.5,95.5 C 354.247,95.1866 356.914,95.52 359.5,96.5C 358.758,97.2868 357.925,97.9535 357,98.5C 355.606,106.22 354.772,105.886 354.5,97.5C 352.821,97.7148 351.821,97.0481 351.5,95.5 Z"/></g>
<g><path style="opacity:0.314" fill="#f3e5c8" d="M 380.5,100.5 C 379.209,101.542 379.209,102.708 380.5,104C 378.801,104.393 377.301,103.893 376,102.5C 375.055,102.905 374.388,103.572 374,104.5C 373.502,101.518 373.335,98.5184 373.5,95.5C 375.5,95.5 377.5,95.5 379.5,95.5C 379.629,97.2161 379.962,98.8828 380.5,100.5 Z M 375.5,97.5 C 376.376,97.3691 377.043,97.7025 377.5,98.5C 375.192,99.8734 374.525,99.5401 375.5,97.5 Z"/></g>
<g><path style="opacity:0.447" fill="#f0e3cd" d="M 399.5,95.5 C 406.488,94.6478 408.822,97.4811 406.5,104C 405.234,104.309 404.067,104.809 403,105.5C 401.989,104.663 400.822,104.33 399.5,104.5C 399.5,101.5 399.5,98.5 399.5,95.5 Z M 402.5,97.5 C 404.484,97.484 405.484,98.484 405.5,100.5C 405.013,103.582 403.679,104.082 401.5,102C 401.214,100.612 401.548,99.1123 402.5,97.5 Z"/></g>
<g><path style="opacity:0.467" fill="#f0e5ce" d="M 172.5,94.5 C 177.309,96.0989 178.642,99.2656 176.5,104C 174.314,105.309 172.147,105.476 170,104.5C 169.502,101.518 169.335,98.5184 169.5,95.5C 170.791,95.7373 171.791,95.404 172.5,94.5 Z M 172.5,97.5 C 175.294,98.5846 175.961,100.418 174.5,103C 173.552,103.483 172.552,103.649 171.5,103.5C 171.325,101.379 171.659,99.3792 172.5,97.5 Z"/></g>
<g><path style="opacity:0.957" fill="#eddfc2" d="M 211.5,95.5 C 213.467,95.2606 215.301,95.5939 217,96.5C 218.154,98.9369 218.654,101.437 218.5,104C 216.406,104.445 214.906,103.612 214,101.5C 213.085,102.328 212.419,103.328 212,104.5C 211.502,101.518 211.335,98.5184 211.5,95.5 Z M 213.5,97.5 C 214.289,97.7828 214.956,98.2828 215.5,99C 214.184,99.5281 213.517,99.0281 213.5,97.5 Z"/></g>
<g><path style="opacity:0.825" fill="#eadfc7" d="M 231.5,95.5 C 233.792,95.2436 235.959,95.5769 238,96.5C 238.497,99.146 238.664,101.813 238.5,104.5C 230.759,105.835 228.426,102.835 231.5,95.5 Z M 233.5,97.5 C 237.013,98.0282 238.013,99.8615 236.5,103C 232.537,103.118 231.537,101.284 233.5,97.5 Z"/></g>
<g><path style="opacity:0.769" fill="#ebe0cf" d="M 251.5,95.5 C 252.314,97.631 252.814,99.9644 253,102.5C 254.067,103.191 255.234,103.691 256.5,104C 254.527,104.495 252.527,104.662 250.5,104.5C 250.264,101.391 250.597,98.3915 251.5,95.5 Z"/></g>
<g><path style="opacity:0.851" fill="#eae0c8" d="M 332.5,95.5 C 334.604,95.2011 336.604,95.5344 338.5,96.5C 333.938,97.1398 333.604,98.3064 337.5,100C 336.437,101.188 335.103,101.688 333.5,101.5C 332.223,102.317 331.89,100.317 332.5,95.5 Z"/></g>
<g><path style="opacity:0.008" fill="#fefffe" d="M 380.5,100.5 C 381.525,100.897 381.692,101.563 381,102.5C 380.536,101.906 380.369,101.239 380.5,100.5 Z"/></g>
<g><path style="opacity:0.827" fill="#eee3cd" d="M 384.5,95.5 C 390.855,94.8733 392.855,97.54 390.5,103.5C 388.257,104.474 385.924,104.808 383.5,104.5C 383.264,101.391 383.597,98.3915 384.5,95.5 Z M 387.5,98.5 C 388.586,98.62 389.253,99.2867 389.5,100.5C 389.566,102.266 388.732,103.266 387,103.5C 384.61,102.828 384.11,101.495 385.5,99.5C 387.005,102.131 387.671,101.797 387.5,98.5 Z"/></g>
<g><path style="opacity:0.004" fill="#fefffe" d="M 461.5,100.5 C 462.833,101.167 462.833,101.167 461.5,100.5 Z"/></g>
<g><path style="opacity:0.682" fill="#efe0c9" d="M 293.5,95.5 C 295.467,95.2606 297.301,95.5939 299,96.5C 299.497,99.146 299.664,101.813 299.5,104.5C 291.399,105.541 289.399,102.541 293.5,95.5 Z M 294.5,97.5 C 296.103,97.3118 297.437,97.8118 298.5,99C 297.949,100.398 297.616,101.732 297.5,103C 293.537,103.118 292.537,101.284 294.5,97.5 Z"/></g>
<g><path style="opacity:0.004" fill="#fefffe" d="M 476.5,101.5 C 477.833,102.167 477.833,102.167 476.5,101.5 Z"/></g>
<g><path style="opacity:0.573" fill="#f1e0d0" d="M 281.5,95.5 C 288.303,94.7348 290.303,97.5681 287.5,104C 285.421,104.808 283.421,104.641 281.5,103.5C 280.484,100.866 280.484,98.1996 281.5,95.5 Z M 283.5,97.5 C 285.484,97.484 286.484,98.484 286.5,100.5C 285.167,104.5 283.833,104.5 282.5,100.5C 282.685,99.4163 283.018,98.4163 283.5,97.5 Z"/></g>
<g><path style="opacity:0.82" fill="#e6daca" d="M 318.5,95.5 C 319.314,97.631 319.814,99.9644 320,102.5C 321.473,102.132 322.973,102.632 324.5,104C 322.89,105.495 321.224,105.661 319.5,104.5C 318.516,101.572 318.183,98.5719 318.5,95.5 Z"/></g>
<g><path style="opacity:0.004" fill="#fefffe" d="M 478.5,102.5 C 479.833,103.167 479.833,103.167 478.5,102.5 Z"/></g>
<g><path style="opacity:0.56" fill="#fefdfd" d="M 71.5,90.5 C 71.5,94.8333 71.5,99.1667 71.5,103.5C 70.5489,104.919 70.2155,106.585 70.5,108.5C 69.2905,108.932 68.2905,109.599 67.5,110.5C 65.2646,110.205 63.2646,110.539 61.5,111.5C 58.5,111.5 55.5,111.5 52.5,111.5C 46.5459,110.904 40.5459,109.904 34.5,108.5C 34.5,107.833 34.1667,107.5 33.5,107.5C 33.5,104.833 33.5,102.167 33.5,99.5C 33.6244,104.438 36.291,106.938 41.5,107C 43.8333,107.667 46.1667,107.667 48.5,107C 48.1667,106.667 47.8333,106.333 47.5,106C 50.0851,104.872 52.7518,104.039 55.5,103.5C 57.8496,103.708 59.5162,104.875 60.5,107C 63.1922,107.43 65.8589,107.263 68.5,106.5C 68.4502,101.448 68.9502,96.4482 70,91.5C 70.3826,90.944 70.8826,90.6107 71.5,90.5 Z"/></g>
<g><path style="opacity:0.792" fill="#e3d9be" d="M 242.5,95.5 C 243.314,97.631 243.814,99.9644 244,102.5C 245.399,103.227 246.899,103.727 248.5,104C 246.527,104.495 244.527,104.662 242.5,104.5C 242.5,101.5 242.5,98.5 242.5,95.5 Z"/></g>
<g><path style="opacity:0.845" fill="#e6dcca" d="M 340.5,95.5 C 342.197,97.3052 343.03,99.6385 343,102.5C 344.333,103.833 345.667,103.833 347,102.5C 347.333,100.167 347.667,97.8333 348,95.5C 348.498,98.4816 348.665,101.482 348.5,104.5C 341.61,105.85 338.944,102.85 340.5,95.5 Z"/></g>
<g><path style="opacity:0.01" fill="#fefffe" d="M 344.5,99.5 C 345.773,100.077 345.773,100.743 344.5,101.5C 343.537,101.03 343.537,100.363 344.5,99.5 Z"/></g>
<g><path style="opacity:0.839" fill="#e6dbc2" d="M 361.5,95.5 C 363.197,97.3052 364.03,99.6385 364,102.5C 365.333,103.833 366.667,103.833 368,102.5C 368.333,100.167 368.667,97.8333 369,95.5C 369.498,98.4816 369.665,101.482 369.5,104.5C 362.493,105.519 359.826,102.519 361.5,95.5 Z"/></g>
<g><path style="opacity:0.004" fill="#fefffe" d="M 440.5,106.5 C 441.833,107.167 441.833,107.167 440.5,106.5 Z"/></g>
<g><path style="opacity:1" fill="#c88dd9" d="M 94.5,99.5 C 99.2003,104.199 103.534,109.199 107.5,114.5C 106.022,114.238 104.689,114.571 103.5,115.5C 104.95,116.85 105.617,118.516 105.5,120.5C 107.91,121.389 110.41,122.055 113,122.5C 115.49,121.664 117.99,120.998 120.5,120.5C 115.999,125.031 110.999,125.531 105.5,122C 100.623,116.627 95.9562,111.127 91.5,105.5C 93.672,105.837 95.5054,106.837 97,108.5C 97.5,108.167 98,107.833 98.5,107.5C 97.5467,104.574 96.2134,101.907 94.5,99.5 Z"/></g>
<g><path style="opacity:0.004" fill="#fefffe" d="M 326.5,109.5 C 327.833,110.167 327.833,110.167 326.5,109.5 Z"/></g>
<g><path style="opacity:1" fill="#e973c8" d="M 123.5,117.5 C 122.833,118.833 121.833,119.833 120.5,120.5C 117.99,120.998 115.49,121.664 113,122.5C 110.41,122.055 107.91,121.389 105.5,120.5C 105.617,118.516 104.95,116.85 103.5,115.5C 104.689,114.571 106.022,114.238 107.5,114.5C 109.836,116.391 112.502,116.891 115.5,116C 118.162,113.015 121.162,110.515 124.5,108.5C 125.922,108.291 127.255,107.791 128.5,107C 131.349,103.984 134.349,101.15 137.5,98.5C 139.111,99.3202 139.778,100.654 139.5,102.5C 138.178,102.67 137.011,102.337 136,101.5C 134.978,102.354 134.145,103.354 133.5,104.5C 134.711,105.72 134.711,106.887 133.5,108C 130.723,110.055 127.723,111.555 124.5,112.5C 124.371,114.216 124.038,115.883 123.5,117.5 Z"/></g>
<g><path style="opacity:1" fill="#ba79d0" d="M 77.5,73.5 C 78.6599,85.6597 78.8265,97.9931 78,110.5C 76.5939,114.613 73.7605,116.947 69.5,117.5C 64.5,117.5 59.5,117.5 54.5,117.5C 54.7413,115.114 54.0746,113.114 52.5,111.5C 55.5,111.5 58.5,111.5 61.5,111.5C 63.7354,111.795 65.7354,111.461 67.5,110.5C 69.1788,110.715 70.1788,110.048 70.5,108.5C 70.8333,108.5 71.1667,108.5 71.5,108.5C 71.5,109.5 71.5,110.5 71.5,111.5C 68.8728,112.092 66.2062,112.425 63.5,112.5C 63.5,113.833 63.5,115.167 63.5,116.5C 69.0888,116.538 73.4221,114.205 76.5,109.5C 77.4573,98.1986 77.7906,86.8653 77.5,75.5C 77.5,74.8333 77.5,74.1667 77.5,73.5 Z"/></g>
<g><path style="opacity:0.004" fill="#fefffe" d="M 198.5,112.5 C 199.833,113.167 199.833,113.167 198.5,112.5 Z"/></g>
<g><path style="opacity:0.004" fill="#fefffe" d="M 412.5,112.5 C 413.833,113.167 413.833,113.167 412.5,112.5 Z"/></g>
<g><path style="opacity:1" fill="#e895ad" d="M 33.5,108.5 C 33.8333,108.5 34.1667,108.5 34.5,108.5C 36.5027,110.982 39.1694,111.982 42.5,111.5C 44.424,113.09 44.7573,114.924 43.5,117C 47.1516,117.499 50.8183,117.665 54.5,117.5C 59.5,117.5 64.5,117.5 69.5,117.5C 58.3409,118.659 47.0076,118.826 35.5,118C 33.6803,117.8 32.347,116.966 31.5,115.5C 34.5023,116.643 37.5023,116.643 40.5,115.5C 40.1667,114.833 39.8333,114.167 39.5,113.5C 37.6587,112.77 35.8254,112.103 34,111.5C 33.5172,110.552 33.3505,109.552 33.5,108.5 Z"/></g>
<g><path style="opacity:1" fill="#c756a2" d="M 42.5,111.5 C 45.8333,111.5 49.1667,111.5 52.5,111.5C 54.0746,113.114 54.7413,115.114 54.5,117.5C 50.8183,117.665 47.1516,117.499 43.5,117C 44.7573,114.924 44.424,113.09 42.5,111.5 Z"/></g>
<g><path style="opacity:0.004" fill="#fefffe" d="M 134.5,118.5 C 135.833,119.167 135.833,119.167 134.5,118.5 Z"/></g>
<g><path style="opacity:0.004" fill="#fefffe" d="M 279.5,119.5 C 280.833,120.167 280.833,120.167 279.5,119.5 Z"/></g>
<g><path style="opacity:0.004" fill="#fefffe" d="M 338.5,121.5 C 339.833,122.167 339.833,122.167 338.5,121.5 Z"/></g>
<g><path style="opacity:0.004" fill="#fefffe" d="M 169.5,123.5 C 170.833,124.167 170.833,124.167 169.5,123.5 Z"/></g>
<g><path style="opacity:0.004" fill="#fefffe" d="M 462.5,123.5 C 463.833,124.167 463.833,124.167 462.5,123.5 Z"/></g>
<g><path style="opacity:0.004" fill="#fefffe" d="M 139.5,124.5 C 140.833,125.167 140.833,125.167 139.5,124.5 Z"/></g>
<g><path style="opacity:0.004" fill="#fefffe" d="M 97.5,126.5 C 98.8333,127.167 98.8333,127.167 97.5,126.5 Z"/></g>
<g><path style="opacity:0.004" fill="#fefffe" d="M 274.5,129.5 C 273.833,128.167 273.833,128.167 274.5,129.5 Z"/></g>
</svg>
